{"title":"Marvels Agents of SHIELD S03E12 720p HDTV x264-AVS [TvMovize]","uid":13878679,"size":500496081,"categoryP":"video","categoryS":"tv_shows","magnet":"?xt=urn:btih:5d1f249343287265b3557a865f99276da4c9f161&amp;dn=Marvels+Agents+of+SHIELD+S03E12+720p+HDTV+x264-AVS+%5BTvMovize%5D&amp;tr=udp%3A%2F%2Ftracker.leechers-paradise.org%3A6969&amp;tr=udp%3A%2F%2Fzer0day.ch%3A1337&amp;tr=udp%3A%2F%2Fopen.demonii.com%3A1337&amp;tr=udp%3A%2F%2Ftracker.coppersurfer.tk%3A6969&amp;tr=udp%3A%2F%2Fexodus.desync.com%3A6969","seeders":12,"leechers":1,"uploader":"TvMovize","files":1,"time":1458137150,"description":"Marvels Agents of SHIELD S03E12 720p HDTV x264-AVS [TvMovize].mp4\r\n\r\nScreens:\r\n \nhttp://www.image2be.com/tv/agentsofshields03e12/1.html  \nhttp://www.image2be.com/tv/agentsofshields03e12/2.html  \nhttp://www.image2be.com/tv/agentsofshields03e12/3.html  \nhttp://www.image2be.com/tv/agentsofshields03e12/4.html  \nhttp://www.image2be.com/tv/agentsofshields03e12/5.html\r\n\r\nNFO:\r\n\r\nFormat : MPEG-4 \r\nFormat profile : Base Media / Version 2 \r\nCodec ID : mp42 (isom/iso2/avc1/mp41) \r\nFile size : 477 MiB \r\nDuration : 41mn 41s \r\nOverall bit rate mode : Variable \r\nOverall bit rate : 1 600 Kbps \r\nEncoded date : UTC 2016-03-16 02:04:16 \r\nTagged date : UTC 2016-03-16 02:04:16 \r\nWriting application : HandBrake 0.10.5 2016021100 \r\n\r\nVideo \r\nID : 1 \r\nFormat : AVC \r\nFormat/Info : Advanced Video Codec \r\nFormat profile :    \r\nFormat settings, CABAC : Yes \r\nFormat settings, ReFrames : 4 frames \r\nCodec ID : avc1 \r\nCodec ID/Info : Advanced Video Coding \r\nDuration : 41mn 41s \r\nBit rate : 1 280 Kbps \r\nWidth : 1 280 pixels \r\nHeight : 718 pixels \r\nDisplay aspect ratio : 16:9 \r\nFrame rate mode : Variable \r\nFrame rate : 23.976 fps \r\nMinimum frame rate : 23.810 fps \r\nMaximum frame rate : 24.390 fps \r\nColor space : YUV \r\nChroma subsampling : 4:2:0 \r\nBit depth : 8 bits \r\nScan type : Progressive \r\nBits/(Pixel*Frame) : 0.058 \r\nStream size : 380 MiB (80%) \r\nWriting library : x264 core 142 r2491 24e4fed \r\nEncoding settings : cabac=1 / ref=3 / deblock=1:0:0 / analyse=0x3:0x113 / me=hex / subme=7 / psy=1 / psy_rd=1.00:0.00 / mixed_ref=1 / me_range=16 / chroma_me=1 / trellis=1 / 8x8dct=1 / cqm=0 / deadzone=21,11 / fast_pskip=1 / chroma_qp_offset=-2 / threads=12 / lookahead_threads=2 / sliced_threads=0 / nr=0 / decimate=1 / interlaced=0 / bluray_compat=0 / constrained_intra=0 / bframes=3 / b_pyramid=2 / b_adapt=1 / b_bias=0 / direct=1 / weightb=1 / open_gop=0 / weightp=2 / keyint=240 / keyint_min=24 / scenecut=40 / intra_refresh=0 / rc_lookahead=40 / rc=abr / mbtree=1 / bitrate=1280 / ratetol=1.0 / qcomp=0.60 / qpmin=0 / qpmax=69 / qpstep=4 / vbv_maxrate=17500 / vbv_bufsize=17500 / nal_hrd=none / filler=0 / ip_ratio=1.40 / aq=1:1.00 \r\nEncoded date : UTC 2016-03-16 02:04:16 \r\nTagged date : UTC 2016-03-16 02:04:16 \r\nColor range : Limited \r\nColor primaries : BT.709 \r\nTransfer characteristics : BT.709 \r\nMatrix coefficients : BT.709 \r\n\r\nAudio \r\nID : 2 \r\nFormat : AAC \r\nFormat/Info : Advanced Audio Codec \r\nFormat profile : LC \r\nCodec ID : 40 \r\nDuration : 41mn 41s \r\nBit rate mode : Variable \r\nBit rate : 321 Kbps \r\nChannel(s) : 2 channels \r\nChannel positions : Front: L R \r\nSampling rate : 48.0 KHz \r\nFrame rate : 46.875 fps (1024 spf) \r\nCompression mode : Lossy \r\nStream size : 95.6 MiB (20%) \r\nTitle : Stereo / Stereo \r\nDefault : Yes \r\nAlternate group : 1 \r\nEncoded date : UTC 2016-03-16 02:04:16 \r\nTagged date : UTC 2016-03-16 02:04:16","torrent":{"xt":"urn:btih:5d1f249343287265b3557a865f99276da4c9f161","amp;dn":"Marvels+Agents+of+SHIELD+S03E12+720p+HDTV+x264-AVS+%5BTvMovize%5D","amp;tr":["udp%3A%2F%2Ftracker.leechers-paradise.org%3A6969","udp%3A%2F%2Fzer0day.ch%3A1337","udp%3A%2F%2Fopen.demonii.com%3A1337","udp%3A%2F%2Ftracker.coppersurfer.tk%3A6969","udp%3A%2F%2Fexodus.desync.com%3A6969"],"infoHash":"5d1f249343287265b3557a865f99276da4c9f161","infoHashBuffer":{"type":"Buffer","data":[93,31,36,147,67,40,114,101,179,85,122,134,95,153,39,109,164,201,241,97]},"announce":[],"urlList":[]}}